<svg width="809" height="187" viewBox="0 0 809 187" fill="none" xmlns="http://www.w3.org/2000/svg">
<path d="M117.6 4.02L119.21 45.19H112.59C109.96 34.69 104.89 26.46 97.38 20.49C89.86 14.52 80.79 11.54 70.17 11.54C62.89 11.54 56.39 12.97 50.66 15.84C44.93 18.7 40.1 22.82 36.16 28.19C32.22 33.56 29.21 40.12 27.12 47.88C25.03 55.64 23.99 64.41 23.99 74.19C23.99 93.4 27.99 108.17 35.98 118.49C43.97 128.81 55.55 133.97 70.71 133.97C93.74 133.97 108.54 121.74 115.1 97.27H122.44V141.84H116.17L112.05 127.7C99.52 138.32 84.36 143.63 66.58 143.63C56.44 143.63 47.28 142.02 39.1 138.8C30.92 135.58 23.94 131.01 18.16 125.11C12.37 119.2 7.89999 112.01 4.72999 103.54C1.56999 95.07 -0.0100098 85.64 -0.0100098 75.26C-0.0100098 64.88 1.65999 54.5 4.99999 45.55C8.33999 36.6 13.02 28.9 19.05 22.46C25.07 16.02 32.3 11.03 40.71 7.51C49.12 3.99 58.4 2.23 68.54 2.23C75.7 2.23 82.44 3.25 88.77 5.27C95.09 7.3 101.95 10.58 109.36 15.12L112.58 4.02H117.6Z" fill="white"/>
<path d="M190.99 45.19C197.79 45.19 204.24 46.42 210.32 48.86C216.41 51.31 221.75 54.68 226.34 58.97C230.93 63.27 234.57 68.37 237.26 74.27C239.95 80.18 241.29 86.65 241.29 93.69C241.29 100.73 239.95 107.65 237.26 113.74C234.58 119.83 230.93 125.08 226.34 129.49C221.75 133.91 216.41 137.37 210.32 139.87C204.23 142.38 197.79 143.63 190.99 143.63C184.19 143.63 177.95 142.4 171.93 139.96C165.9 137.52 160.62 134.08 156.09 129.67C151.55 125.26 147.97 119.98 145.35 113.83C142.72 107.69 141.41 100.97 141.41 93.69C141.41 86.41 142.72 80.15 145.35 74.18C147.97 68.21 151.55 63.08 156.09 58.79C160.62 54.49 165.9 51.15 171.93 48.77C177.95 46.38 184.31 45.19 190.99 45.19ZM190.99 53.78C186.57 53.78 182.55 54.74 178.91 56.64C175.27 58.55 172.17 61.27 169.6 64.78C167.03 68.3 165.06 72.54 163.69 77.49C162.32 82.44 161.63 87.9 161.63 93.87C161.63 99.84 162.32 105.68 163.69 110.7C165.06 115.71 167.03 119.98 169.6 123.5C172.16 127.02 175.24 129.74 178.82 131.64C182.4 133.55 186.46 134.5 190.99 134.5C195.52 134.5 199.64 133.55 203.34 131.64C207.04 129.73 210.2 126.99 212.83 123.41C215.45 119.83 217.48 115.53 218.92 110.52C220.35 105.51 221.07 99.96 221.07 93.87C221.07 87.78 220.35 82.48 218.92 77.58C217.49 72.69 215.46 68.48 212.83 64.96C210.2 61.44 207.04 58.69 203.34 56.73C199.64 54.76 195.52 53.78 190.99 53.78Z" fill="white"/>
<path d="M289.44 113.21C289.44 118.22 289.56 122.16 289.8 125.02C290.04 127.88 290.66 130.06 291.68 131.55C292.69 133.04 294.15 134.03 296.06 134.5C297.97 134.98 300.65 135.34 304.12 135.57V141.84H256.51V135.57C259.97 135.33 262.71 134.97 264.74 134.5C266.77 134.02 268.32 133.07 269.39 131.64C270.46 130.21 271.15 128.15 271.45 125.46C271.75 122.77 271.9 119.17 271.9 114.63V91.72C271.9 84.92 271.81 79.25 271.63 74.72C271.45 70.19 271.12 67.08 270.65 65.41C270.29 63.86 269.87 62.64 269.4 61.74C268.92 60.84 268.15 60.13 267.07 59.59C266 59.05 264.59 58.69 262.86 58.52C261.13 58.34 258.89 58.25 256.15 58.25V51.99L285.33 45.19L287.66 63.09H288.55C293.92 57 299.56 52.5 305.47 49.58C311.38 46.66 317.91 45.19 325.07 45.19C332.59 45.19 338.91 46.71 344.04 49.75C349.17 52.79 352.75 57.18 354.78 62.91H355.5C359.91 57.3 365.28 52.95 371.61 49.84C377.93 46.74 384.68 45.19 391.84 45.19C397.45 45.19 402.55 46.12 407.14 47.96C411.73 49.81 415.22 52.35 417.61 55.57C419.76 58.32 421.28 61.92 422.17 66.4C423.06 70.88 423.51 76.99 423.51 84.75V113.21C423.51 118.1 423.66 121.98 423.96 124.85C424.26 127.71 424.88 129.92 425.84 131.47C426.79 133.02 428.26 134.04 430.23 134.51C432.2 134.99 434.91 135.35 438.37 135.58V141.85H390.76V135.58C394.1 135.46 396.78 135.13 398.81 134.6C400.84 134.06 402.39 133.05 403.46 131.56C404.53 130.07 405.22 128.01 405.52 125.38C405.82 122.76 405.97 119.18 405.97 114.64V92.09C405.97 85.29 405.61 79.53 404.9 74.82C404.18 70.11 402.99 66.29 401.32 63.36C399.65 60.44 397.47 58.32 394.79 57.01C392.11 55.7 388.85 55.04 385.04 55.04C379.79 55.04 374.86 56.5 370.27 59.43C365.67 62.36 362.06 66.26 359.44 71.15C358.84 72.34 358.34 73.51 357.92 74.64C357.5 75.78 357.17 77.03 356.94 78.4C356.7 79.77 356.55 81.42 356.49 83.32C356.43 85.23 356.4 87.62 356.4 90.48V113.21C356.4 118.1 356.52 121.98 356.76 124.85C357 127.71 357.62 129.92 358.64 131.47C359.65 133.02 361.17 134.04 363.2 134.51C365.23 134.99 367.97 135.35 371.43 135.58V141.85H323.82V135.58C327.16 135.34 329.84 134.98 331.88 134.51C333.91 134.03 335.43 133.08 336.44 131.65C337.45 130.22 338.11 128.16 338.41 125.47C338.71 122.78 338.86 119.18 338.86 114.64V92.09C338.86 85.17 338.5 79.35 337.79 74.64C337.07 69.93 335.91 66.11 334.3 63.18C332.69 60.26 330.57 58.17 327.95 56.91C325.32 55.66 322.1 55.03 318.28 55.03C312.91 55.03 307.87 56.49 303.16 59.42C298.44 62.35 294.89 66.25 292.51 71.14C291.91 72.33 291.41 73.5 290.99 74.63C290.57 75.77 290.24 77.02 290.01 78.39C289.77 79.76 289.62 81.41 289.56 83.31C289.5 85.22 289.47 87.61 289.47 90.47V113.2L289.44 113.21Z" fill="white"/>
<path d="M479.54 59.87H480.26C484.08 55.34 488.2 51.76 492.61 49.13C497.02 46.51 502.16 45.19 508 45.19C514.8 45.19 521.04 46.42 526.71 48.86C532.38 51.31 537.3 54.74 541.48 59.15C545.66 63.57 548.91 68.79 551.23 74.81C553.56 80.84 554.72 87.43 554.72 94.59C554.72 101.75 553.53 108.52 551.14 114.55C548.75 120.58 545.47 125.74 541.29 130.03C537.11 134.33 532.16 137.67 526.43 140.05C520.7 142.44 514.5 143.63 507.81 143.63C502.32 143.63 497.34 142.7 492.86 140.86C488.38 139.01 484.18 136 480.24 131.82V157.95C480.24 162.72 480.48 166.54 480.96 169.41C481.43 172.27 482.39 174.48 483.82 176.03C485.25 177.58 487.31 178.65 490 179.25C492.68 179.85 496.23 180.2 500.65 180.32V186.59H445.52V180.32C449.1 180.2 451.99 179.84 454.2 179.25C456.41 178.65 458.14 177.58 459.39 176.03C460.64 174.48 461.51 172.36 461.99 169.68C462.47 166.99 462.71 163.5 462.71 159.21V92.26C462.71 85.34 462.62 79.67 462.44 75.26C462.26 70.85 461.93 67.8 461.46 66.13C460.86 63.27 459.49 61.33 457.34 60.31C455.19 59.3 451.13 58.79 445.17 58.79V52.7L479.54 45.9V59.87ZM484.91 65.06C483.36 67.45 482.19 70.28 481.42 73.56C480.64 76.84 480.26 81.11 480.26 86.36V100.32C480.26 103.54 480.35 106.32 480.53 108.64C480.71 110.97 480.98 112.97 481.34 114.64C481.7 116.31 482.17 117.8 482.77 119.12C483.37 120.43 484.14 121.69 485.1 122.88C487.84 126.7 491.12 129.65 494.95 131.74C498.77 133.83 502.76 134.87 506.94 134.87C515.17 134.87 521.82 131.41 526.9 124.49C531.97 117.57 534.51 107.84 534.51 95.31C534.51 89.11 533.82 83.47 532.45 78.39C531.08 73.32 529.14 68.96 526.63 65.32C524.12 61.68 521.11 58.85 517.59 56.82C514.07 54.79 510.16 53.78 505.87 53.78C501.58 53.78 497.61 54.76 493.97 56.73C490.33 58.7 487.32 61.47 484.93 65.05L484.91 65.06Z" fill="white"/>
<path d="M625.96 81.17V73.83C625.96 59.27 619.75 51.99 607.34 51.99C605.31 51.99 603.58 52.17 602.15 52.53C600.72 52.89 599.52 53.49 598.57 54.32C597.61 55.16 596.75 56.35 595.97 57.9C595.19 59.45 594.45 61.36 593.73 63.63C592.42 67.09 591.13 69.39 589.88 70.52C588.63 71.66 586.81 72.22 584.42 72.22C578.45 72.22 575.47 69.24 575.47 63.27C575.47 57.3 578.51 53.1 584.6 49.93C590.69 46.77 599.34 45.19 610.56 45.19C622.49 45.19 630.97 47.31 635.98 51.54C640.99 55.78 643.5 62.97 643.5 73.11V113.21C643.5 126.81 646.19 133.62 651.56 133.62C653.23 133.62 654.84 133.41 656.39 132.99C657.94 132.57 659.25 131.47 660.33 129.68L662.84 133.98C661.41 136.73 658.78 139.02 654.96 140.87C651.14 142.72 647.14 143.64 642.97 143.64C637.72 143.64 633.81 141.97 631.25 138.63C628.68 135.29 627.4 130.58 627.4 124.49H626.5C623.4 130.34 619.1 134.96 613.61 138.36C608.12 141.76 602.03 143.46 595.35 143.46C587.83 143.46 581.93 141.55 577.63 137.73C573.33 133.91 571.19 128.78 571.19 122.34C571.19 119.48 571.7 116.73 572.71 114.11C573.72 111.49 575.36 108.98 577.63 106.59C579.9 104.2 582.88 101.85 586.58 99.52C590.28 97.19 594.81 94.84 600.18 92.45L625.96 81.17ZM625.96 88.87C619.16 91.5 613.4 94.06 608.69 96.57C603.98 99.08 600.19 101.58 597.32 104.09C594.45 106.6 592.4 109.1 591.14 111.61C589.88 114.12 589.26 116.68 589.26 119.31C589.26 123.25 590.57 126.47 593.2 128.98C595.82 131.49 599.29 132.74 603.58 132.74C606.68 132.74 609.58 131.97 612.26 130.41C614.95 128.86 617.3 126.74 619.33 124.06C621.36 121.37 622.97 118.21 624.16 114.57C625.35 110.93 625.95 107.08 625.95 103.02V88.88L625.96 88.87Z" fill="white"/>
<path d="M678.04 141.85H674.1V111.06H678.57C683.22 127.89 691.7 136.3 703.99 136.3C708.76 136.3 712.55 135.14 715.36 132.81C718.16 130.48 719.57 126.93 719.57 122.16C719.57 120.37 719.3 118.85 718.76 117.6C718.22 116.35 717.21 115.04 715.72 113.66C714.23 112.29 712.14 110.71 709.46 108.92C706.78 107.13 703.22 104.86 698.81 102.12C694.75 99.61 691.23 97.29 688.25 95.14C685.27 92.99 682.76 90.82 680.73 88.61C678.7 86.4 677.18 84.05 676.17 81.54C675.15 79.03 674.65 76.11 674.65 72.77C674.65 68.71 675.34 64.98 676.71 61.58C678.08 58.18 679.96 55.29 682.35 52.9C684.74 50.51 687.54 48.63 690.76 47.26C693.98 45.89 697.5 45.2 701.32 45.2C704.54 45.2 707.88 45.71 711.34 46.72C714.8 47.74 717.84 49.08 720.47 50.75L724.05 46.99H727.45V72.77H722.8C720.17 65.49 717.31 60.3 714.21 57.2C711.11 54.1 707.29 52.55 702.75 52.55C698.69 52.55 695.44 53.62 693 55.77C690.55 57.92 689.33 60.9 689.33 64.72C689.33 66.75 689.66 68.51 690.31 70C690.96 71.49 692.01 72.95 693.44 74.39C694.87 75.82 696.69 77.28 698.9 78.78C701.11 80.27 703.76 81.97 706.87 83.88C712 87.1 716.39 89.97 720.03 92.47C723.67 94.98 726.62 97.45 728.89 99.9C731.15 102.35 732.83 104.88 733.9 107.51C734.97 110.14 735.51 113.12 735.51 116.46C735.51 124.93 732.76 131.59 727.28 136.42C721.79 141.25 714.57 143.67 705.62 143.67C696.67 143.67 688.32 140.98 681.63 135.61L678.05 141.88L678.04 141.85Z" fill="white"/>
<path d="M791.6 59.76C791.6 54.32 790.54 50.1 788.42 47.1C786.3 44.1 783.33 42.6 779.52 42.6C778.11 43.17 776.75 43.62 775.44 43.98C774.13 44.33 773.02 44.51 772.1 44.51C770.12 44.51 768.59 44.1 767.49 43.29C766.39 42.48 765.85 41.33 765.85 39.85C765.85 38.58 766.38 37.59 767.44 36.88C768.5 36.17 769.98 35.82 771.89 35.82C772.88 35.82 773.99 35.94 775.23 36.19C776.47 36.44 777.58 36.7 778.57 36.98C781.96 36.98 784.66 35.66 786.68 33.01C788.69 30.36 789.7 26.39 789.7 21.09C789.7 15.79 788.69 12.16 786.68 9.54C784.67 6.93 781.93 5.62 778.47 5.62C775.22 5.62 772.7 6.4 770.89 7.95C769.09 9.5 768.19 11.66 768.19 14.41C768.19 16.32 768.74 17.91 769.83 19.18C770.92 20.45 772.32 21.09 774.02 21.09C773.6 23 772.68 24.5 771.27 25.59C769.86 26.69 768.06 27.23 765.87 27.23C764.17 27.23 762.57 26.91 761.05 26.28C759.53 25.64 758.21 24.76 757.08 23.63C755.95 22.5 755.05 21.21 754.38 19.76C753.71 18.31 753.37 16.74 753.37 15.05C753.37 12.79 753.97 10.74 755.17 8.9C756.37 7.06 758.08 5.47 760.31 4.13C762.54 2.79 765.18 1.76 768.26 1.06C771.33 0.35 774.78 0 778.59 0C782.76 0 786.52 0.44 789.87 1.32C793.22 2.2 796.1 3.48 798.51 5.13C800.91 6.79 802.75 8.79 804.02 11.12C805.29 13.45 805.93 16.03 805.93 18.85C805.93 21.11 805.56 23.3 804.82 25.42C804.08 27.54 803.02 29.46 801.64 31.19C800.26 32.92 798.64 34.42 796.77 35.69C794.9 36.96 792.87 37.88 790.68 38.44V39.08C793.36 39.86 795.82 40.93 798.04 42.31C800.27 43.69 802.15 45.33 803.71 47.24C805.26 49.15 806.46 51.23 807.31 53.49C808.16 55.75 808.58 58.15 808.58 60.69C808.58 64.01 807.82 67.08 806.3 69.91C804.78 72.74 802.66 75.17 799.94 77.22C797.22 79.27 794.01 80.86 790.3 81.99C786.59 83.12 782.51 83.69 778.06 83.69C774.03 83.69 770.31 83.21 766.88 82.26C763.45 81.31 760.5 80 758.03 78.34C755.56 76.68 753.61 74.7 752.2 72.41C750.79 70.12 750.08 67.59 750.08 64.83C750.08 62.85 750.45 61 751.19 59.27C751.93 57.54 752.94 56.02 754.21 54.71C755.48 53.4 756.96 52.36 758.66 51.58C760.36 50.8 762.16 50.41 764.06 50.41C766.39 50.41 768.37 51.03 769.99 52.26C771.61 53.5 772.64 55.14 773.06 57.19C770.94 57.19 769.17 58.06 767.76 59.79C766.35 61.52 765.64 63.66 765.64 66.2C765.64 69.66 766.75 72.43 768.98 74.52C771.21 76.6 774.19 77.65 777.93 77.65C781.96 77.65 785.24 76.03 787.78 72.78C790.32 69.53 791.59 65.19 791.59 59.75L791.6 59.76Z" fill="white"/>
</svg>
