<?xml version="1.0" encoding="utf-8"?>
<!-- Generator: $$$/GeneralStr/196=Adobe Illustrator 27.6.0, SVG Export Plug-In . SVG Version: 6.00 Build 0)  -->
<svg version="1.1" id="Calque_1" xmlns="http://www.w3.org/2000/svg" xmlns:xlink="http://www.w3.org/1999/xlink" x="0px" y="0px"
	 viewBox="0 0 1147.3 187" style="enable-background:new 0 0 1147.3 187;" xml:space="preserve">
<g>
	<path d="M147.4,2.3h6.6l2.1,53.9h-8.7c-3.4-13.7-10.1-24.5-19.9-32.3c-9.8-7.8-21.7-11.7-35.6-11.7c-9.5,0-18,1.9-25.5,5.6
		c-7.5,3.7-13.8,9.1-19,16.2c-5.2,7-9.1,15.6-11.8,25.8c-2.7,10.2-4.1,21.6-4.1,34.4c0,25.2,5.2,44.5,15.7,58
		c10.5,13.5,25.6,20.3,45.5,20.3c30.1,0,49.5-16,58.1-48h9.6v58.3h-8.2l-5.4-18.5c-16.4,13.9-36.2,20.9-59.5,20.9
		c-13.3,0-25.3-2.1-36-6.3c-10.7-4.2-19.8-10.2-27.4-17.9c-7.6-7.7-13.4-17.1-17.6-28.2C2.1,121.5,0,109.2,0,95.6
		c0-14.2,2.2-27.2,6.6-38.9C10.9,45,17.1,34.9,25,26.5c7.9-8.4,17.3-15,28.4-19.6C64.3,2.3,76.5,0,89.7,0c9.4,0,18.2,1.3,26.5,4
		c8.3,2.7,17.3,7,26.9,12.9L147.4,2.3z"/>
	<path d="M284.7,0c13.7,0,26.6,2.4,38.4,7.3c11.9,4.8,22.2,11.5,30.9,19.9c8.7,8.4,15.6,18.4,20.6,29.8c5,11.4,7.5,23.7,7.5,37
		c0,12.7-2.5,24.5-7.6,35.6c-5.1,11.1-12,20.7-20.7,28.9c-8.7,8.2-19.1,14.7-30.9,19.4c-11.9,4.8-24.6,7.1-38.2,7.1
		c-13.6,0-26.3-2.4-38.2-7.1c-11.9-4.8-22.2-11.2-30.9-19.4c-8.7-8.2-15.7-17.8-20.7-28.9c-5.1-11.1-7.6-23-7.6-35.6
		c0-13.3,2.5-25.6,7.5-37c5-11.4,11.9-21.3,20.6-29.8c8.7-8.4,19.1-15.1,30.9-19.9C258.1,2.4,270.9,0,284.7,0z M284.7,172.2
		c10.3,0,19.6-1.8,27.8-5.4c8.2-3.6,15.2-8.7,21.1-15.5c5.9-6.7,10.3-14.9,13.5-24.5c3.1-9.6,4.7-20.3,4.7-32.2
		c0-12.5-1.6-23.8-4.7-33.9c-3.1-10.1-7.6-18.7-13.4-25.8c-5.8-7.1-12.8-12.6-21.1-16.4c-8.3-3.8-17.6-5.7-27.9-5.7
		s-19.6,1.9-27.9,5.7c-8.3,3.8-15.3,9.3-21.1,16.4c-5.8,7.1-10.2,15.7-13.4,25.8c-3.1,10.1-4.7,21.4-4.7,33.9
		c0,11.9,1.6,22.6,4.7,32.2c3.1,9.6,7.6,17.8,13.4,24.5c5.8,6.7,12.8,11.9,21.1,15.5C265.1,170.4,274.4,172.2,284.7,172.2z"/>
	<path d="M521.3,140.8L582.3,2.3h52.5v8.9c-5,0.2-9,0.8-12.1,1.9c-3,1.1-5.4,2.9-7,5.5c-1.6,2.6-2.7,6.1-3.3,10.7
		c-0.6,4.5-0.8,10.3-0.8,17.3v91.8c0,7.8,0.3,14,0.9,18.5c0.6,4.5,1.8,8,3.6,10.5c1.8,2.5,4.4,4.1,7.7,4.9c3.4,0.8,7.8,1.3,13.2,1.4
		v8.9h-75.9v-8.9c5.5-0.2,9.9-0.7,13.2-1.5c3.4-0.9,6-2.5,7.8-4.8c1.9-2.3,3.1-5.7,3.7-10c0.6-4.3,0.9-10.1,0.9-17.5V31.4h-2.3
		l-68.4,153.7H511L443.8,31.4h-0.9v107.1c0,7.8,0.3,14,0.9,18.5c0.6,4.5,1.8,8,3.6,10.5c1.8,2.5,4.4,4.1,7.7,4.9
		c3.4,0.8,7.8,1.3,13.2,1.4v8.9H403v-8.9c5.5-0.2,9.9-0.7,13.2-1.5c3.4-0.9,6-2.5,7.8-4.8c1.9-2.3,3.1-5.7,3.7-10
		c0.6-4.3,0.9-10.1,0.9-17.5V45c0-6.6-0.3-12-0.8-16.3c-0.5-4.3-1.6-7.7-3.3-10.2c-1.6-2.5-4-4.3-7.1-5.3c-3.1-1-7.2-1.7-12.2-2V2.3
		h56l59,138.5H521.3z"/>
	<path d="M802,47.6c0,8.3-1.3,15.7-4,22.3c-2.7,6.6-6.8,12.1-12.5,16.6c-5.7,4.5-13.1,8-22.3,10.5c-9.1,2.5-20.3,3.7-33.4,3.7h-21.1
		V146c0,5.8,0.4,10.5,1.1,14.2c0.7,3.7,2.2,6.5,4.5,8.6c2.3,2,5.5,3.4,9.8,4.1c4.3,0.7,10,1.1,17,1.1v8.9h-82.7v-8.9
		c5.5-0.2,9.9-0.6,13.2-1.4c3.4-0.8,6-2.1,7.8-4c1.9-1.9,3.1-4.5,3.8-8c0.6-3.4,0.9-7.9,0.9-13.4V38c0-5.5-0.3-9.9-0.8-13.2
		c-0.5-3.4-1.6-6-3.3-8c-1.6-2-4-3.3-7.1-4c-3.1-0.7-7.2-1.2-12.2-1.5V2.3h73.6c21.6,0,38.2,4,50,11.9C796.1,22.3,802,33.4,802,47.6
		z M708.8,89h16.6c15.6,0,27.2-3,34.8-9c7.6-6,11.4-15.9,11.4-29.6c0-13.3-3-22.8-9-28.5c-6-5.7-15.4-8.6-28.2-8.6h-21.6
		c-2.7,0-4,1.3-4,4V89z"/>
	<path d="M909.6,117.4H847c-2.7,6.4-4.9,12.1-6.8,17c-1.9,4.9-3.4,9.2-4.6,12.8c-1.2,3.6-2,6.6-2.5,9.1c-0.5,2.5-0.7,4.5-0.7,6.1
		c0,4.4,1.4,7.4,4.2,9c2.8,1.6,7.5,2.5,14.1,2.5v8.9h-56.9v-8.9c3.6-0.5,6.7-1.1,9.3-1.9c2.6-0.8,4.8-1.9,6.8-3.3
		c2-1.4,3.7-3.2,5.2-5.5c1.5-2.3,2.9-5,4.3-8.3L880.3,2.3h10.1l53.2,132.1c3.6,8.7,6.7,15.7,9.4,21c2.7,5.2,5.2,9.2,7.7,11.8
		c2.5,2.7,5.2,4.4,8.1,5.2c2.9,0.8,6.4,1.2,10.4,1.2v9.1h-76.4v-9.1c8.3,0,14-0.8,17.1-2.3c3.1-1.6,4.7-4.1,4.7-7.7
		c0-1.6-0.1-3-0.2-4.3c-0.2-1.3-0.4-2.8-0.8-4.3c-0.4-1.6-0.9-3.3-1.6-5.3c-0.7-2-1.6-4.3-2.7-6.9L909.6,117.4z M851.7,105.7h53.4
		l-26-69.1L851.7,105.7z"/>
	<path d="M996.3,182.8h-5.2v-40.3h5.9c6.1,22,17.2,33,33.3,33c6.2,0,11.2-1.5,14.9-4.6c3.7-3,5.5-7.7,5.5-13.9c0-2.3-0.4-4.3-1.1-6
		c-0.7-1.6-2-3.4-4-5.2c-2-1.8-4.7-3.9-8.2-6.2c-3.5-2.3-8.2-5.3-13.9-8.9c-5.3-3.3-9.9-6.3-13.8-9.1c-3.9-2.8-7.2-5.7-9.8-8.6
		c-2.7-2.9-4.6-6-6-9.3c-1.3-3.3-2-7.1-2-11.5c0-5.3,0.9-10.2,2.7-14.6c1.8-4.5,4.3-8.2,7.4-11.4c3.1-3.1,6.8-5.6,11-7.4
		c4.2-1.8,8.8-2.7,13.8-2.7c4.2,0,8.6,0.7,13.1,2c4.5,1.3,8.5,3.1,12,5.3l4.7-4.9h4.5v33.7h-6.1c-3.4-9.5-7.2-16.3-11.2-20.4
		c-4.1-4.1-9.1-6.1-15-6.1c-5.3,0-9.6,1.4-12.8,4.2c-3.2,2.8-4.8,6.7-4.8,11.7c0,2.7,0.4,5,1.3,6.9c0.9,2,2.2,3.9,4.1,5.7
		s4.3,3.8,7.1,5.7c2.9,2,6.4,4.2,10.4,6.7c6.7,4.2,12.5,8,17.2,11.2c4.8,3.3,8.6,6.5,11.6,9.7c3,3.2,5.2,6.5,6.6,10
		c1.4,3.4,2.1,7.3,2.1,11.7c0,11.1-3.6,19.8-10.8,26.1c-7.2,6.3-16.6,9.5-28.4,9.5c-12.2,0-22.7-3.5-31.4-10.5L996.3,182.8z"/>
	<path d="M1124.7,52.5c0-4.4-0.9-7.8-2.7-10.3c-1.8-2.5-4.3-3.7-7.4-3.7c-1.3,0.5-2.5,0.9-3.6,1.2c-1.2,0.3-2.2,0.5-3.2,0.5
		c-1.7,0-3-0.5-4-1.4c-0.9-0.9-1.4-2.1-1.4-3.5c0-3,1.7-4.5,5.2-4.5c1.6,0,3.7,0.4,6.3,1.2c2.7,0,4.8-1.4,6.6-4.1
		c1.7-2.7,2.6-6.1,2.6-10.2c0-6.7-3-10.1-8.9-10.1c-5.9,0-8.9,2.3-8.9,6.8c0,3.6,1.9,5.4,5.6,5.4c-0.3,1.3-1.3,2.3-2.8,3.3
		c-1.6,0.9-3.4,1.4-5.4,1.4c-3.1,0-5.7-1.1-7.8-3.2c-2.1-2.1-3.2-4.7-3.2-7.8c0-4.1,2-7.3,6-9.7c4-2.4,9.5-3.6,16.5-3.6
		c7.8,0,14,1.5,18.6,4.6c4.6,3,6.9,7.1,6.9,12.3c0,4.1-1.4,7.7-4.2,10.8c-2.8,3.1-6.4,5.2-10.8,6.1v0.9c5.3,1.3,9.5,3.6,12.7,7
		c3.1,3.4,4.7,7.4,4.7,11.9c0,5.9-2.7,10.8-8,14.6c-5.3,3.8-12,5.7-20.2,5.7c-7.3,0-13.4-1.6-18-4.7c-4.7-3.1-7-7.1-7-11.9
		c0-3.4,1.2-6.3,3.5-8.6c2.3-2.3,5.2-3.4,8.7-3.4c2.2,0,4.1,0.5,5.9,1.4c1.7,0.9,2.8,2.3,3.3,4c-1.7,0-3.2,0.7-4.5,2.2
		c-1.3,1.5-1.9,3.2-1.9,5.3c0,2.3,0.9,4.2,2.6,5.6c1.7,1.4,4.1,2.1,7,2.1C1120.9,66.1,1124.7,61.5,1124.7,52.5z"/>
</g>
</svg>
